Coordinates
version=1
nRows=43
nColumns=12
inDegrees=yes

Units are S.I. units (second, meters, Newtons, ...)
Angles are in degrees

endheader
time	SC_y	SC_z	SC_x	AC_y	AC_z	AC_x	GH_y	GH_z	GH_yy	EL_x	PS_y
       0.0              -28.29          18.46          43.71          36.48          2.781         -14.25          162.0          45.47          151.2          78.09          61.89
   0.03437              -28.29          18.46          43.72          36.48          2.781         -14.24          162.0          45.47          151.2          78.09          61.89
   0.06873              -28.29          18.46          43.72          36.49          2.782         -14.24          162.0          45.46          151.1          78.08          61.88
    0.1031              -28.29          18.46          43.72          36.49          2.782         -14.23          161.9          45.45          151.1          78.07          61.88
    0.1375               -28.3          18.46          43.72           36.5          2.783         -14.23          161.9          45.45          151.0          78.07          61.87
    0.1718               -28.3          18.46          43.73           36.5          2.784         -14.22          161.9          45.44          150.9          78.06          61.87
    0.2062               -28.3          18.45          43.73          36.51          2.784         -14.21          161.9          45.43          150.9          78.05          61.86
    0.2406              -28.31          18.45          43.73          36.51          2.785         -14.21          161.9          45.43          150.8          78.04          61.85
    0.2749              -28.31          18.45          43.73          36.52          2.786          -14.2          161.8          45.42          150.7          78.03          61.85
    0.3093              -28.32          18.45          43.74          36.52          2.787         -14.19          161.8          45.41          150.7          78.02          61.84
    0.3437              -28.32          18.45          43.74          36.53          2.788         -14.18          161.8           45.4          150.6          78.01          61.83
     0.378              -28.32          18.45          43.74          36.54          2.789         -14.17          161.7          45.39          150.5           78.0          61.82
    0.4124              -28.33          18.44          43.75          36.55           2.79         -14.16          161.7          45.38          150.4          77.99          61.81
    0.4468              -28.34          18.44          43.75          36.55          2.792         -14.15          161.7          45.37          150.3          77.97           61.8
    0.4811              -28.34          18.44          43.76          36.56          2.793         -14.14          161.6          45.35          150.2          77.96          61.79
    0.5155              -28.35          18.44          43.76          36.57          2.794         -14.13          161.6          45.34          150.0          77.94          61.78
    0.5499              -28.36          18.44          43.77          36.58          2.796         -14.12          161.5          45.33          149.9          77.92          61.77
    0.5842              -28.36          18.43          43.77           36.6          2.798          -14.1          161.5          45.31          149.8           77.9          61.75
    0.6186              -28.37          18.43          43.78          36.61            2.8         -14.08          161.4          45.29          149.6          77.88          61.74
     0.653              -28.38          18.43          43.79          36.62          2.802         -14.07          161.3          45.27          149.4          77.86          61.72
    0.6873              -28.39          18.42          43.79          36.64          2.804         -14.05          161.3          45.25          149.2          77.83           61.7
    0.7217              -28.41          18.42           43.8          36.66          2.807         -14.02          161.2          45.23          149.0           77.8          61.68
    0.7561              -28.42          18.42          43.81          36.67          2.809          -14.0          161.1           45.2          148.8          77.77          61.66
    0.7904              -28.43          18.41          43.82           36.7          2.812         -13.97          161.0          45.17          148.5          77.74          61.63
    0.8248              -28.45          18.41          43.83          36.72          2.816         -13.94          160.9          45.14          148.3           77.7          61.61
    0.8592              -28.47           18.4          43.85          36.75           2.82         -13.91          160.8          45.11          147.9          77.66          61.57
    0.8935              -28.49          18.39          43.86          36.77          2.824         -13.88          160.7          45.07          147.6          77.61          61.54
    0.9279              -28.51          18.39          43.88          36.81          2.829         -13.83          160.5          45.02          147.2          77.56           61.5
    0.9622              -28.53          18.38          43.89          36.84          2.834         -13.79          160.3          44.97          146.7           77.5          61.46
    0.9966              -28.56          18.37          43.92          36.89           2.84         -13.73          160.2          44.91          146.2          77.43          61.41
     1.031              -28.59          18.36          43.94          36.93          2.847         -13.67          159.9          44.85          145.6          77.35          61.35
     1.065              -28.63          18.34          43.97          36.99          2.855          -13.6          159.7          44.77          144.9          77.26          61.28
       1.1              -28.67          18.33           44.0          37.05          2.865         -13.52          159.4          44.68          144.1          77.15          61.21
     1.134              -28.72          18.31          44.03          37.13          2.876         -13.43          159.1          44.58          143.2          77.03          61.12
     1.168              -28.78          18.29          44.08          37.21          2.888         -13.32          158.7          44.46          142.2          76.89          61.02
     1.203              -28.85          18.27          44.13          37.31          2.903         -13.19          158.2          44.32          140.9          76.72          60.89
     1.237              -28.93          18.24          44.19          37.43          2.921         -13.04          157.7          44.16          139.4          76.53          60.75
     1.272              -29.03          18.21          44.26          37.58          2.942         -12.86          157.0          43.96          137.6          76.29          60.58
     1.306              -29.15          18.17          44.35          37.75          2.968         -12.64          156.2          43.72          135.5           76.0          60.37
      1.34               -29.3          18.12          44.45          37.97            3.0         -12.36          155.2          43.42          132.8          75.65          60.11
     1.375              -29.48          18.06          44.58          38.23          3.038         -12.03          154.0          43.06          129.6          75.22           59.8
     1.409               -29.7          17.98          44.75          38.56          3.087         -11.61          152.5          42.61          125.5          74.67           59.4
     1.443              -29.98          17.89          44.95          38.98          3.148         -11.09          150.7          42.04          120.4          73.99          58.91
